<svg width="88" height="64" viewBox="0 0 88 64" fill="none" xmlns="http://www.w3.org/2000/svg">
<path id="Vector" d="M29.6028 26.3762C29.0152 25.7922 28.0655 25.7952 27.4815 26.3827C26.8975 26.9703 26.9004 27.9201 27.488 28.5041L29.6028 26.3762ZM48.8295 47.6002L47.7721 48.6641C48.3571 49.2456 49.3019 49.2456 49.8869 48.6641L48.8295 47.6002ZM87.5574 11.224C88.145 10.64 88.1479 9.69029 87.5639 9.10271C86.9799 8.51513 86.0302 8.51222 85.4426 9.0962L87.5574 11.224ZM0 17.5512V57.4887H3V17.5512H0ZM6.03905 63.5H80.0292V60.5H6.03905V63.5ZM86.0683 57.4887V17.5512H83.0683V57.4887H86.0683ZM80.0293 11.5399H6.03906V14.5399H80.0293V11.5399ZM86.0683 17.5512C86.0683 14.2226 83.3558 11.5399 80.0293 11.5399V14.5399C81.7164 14.5399 83.0683 15.8968 83.0683 17.5512H86.0683ZM80.0292 63.5C83.3558 63.5 86.0683 60.8173 86.0683 57.4887H83.0683C83.0683 59.1431 81.7164 60.5 80.0292 60.5V63.5ZM0 57.4887C0 60.8173 2.71247 63.5 6.03905 63.5V60.5C4.35194 60.5 3 59.1431 3 57.4887H0ZM3 17.5512C3 15.8968 4.35194 14.5399 6.03906 14.5399V11.5399C2.71248 11.5399 0 14.2226 0 17.5512H3ZM29.08 14.48V6.51129H26.08V14.48H29.08ZM32.119 3.5H53.9501V0.5H32.119V3.5ZM56.9891 6.51129V14.48H59.9891V6.51129H56.9891ZM53.9501 3.5C55.6372 3.5 56.9891 4.85687 56.9891 6.51129H59.9891C59.9891 3.18268 57.2767 0.5 53.9501 0.5V3.5ZM29.08 6.51129C29.08 4.85686 30.4319 3.5 32.119 3.5V0.5C28.7925 0.5 26.08 3.18268 26.08 6.51129H29.08ZM27.488 28.5041L47.7721 48.6641L49.8869 46.5363L29.6028 26.3762L27.488 28.5041ZM49.8869 48.6641L87.5574 11.224L85.4426 9.0962L47.7721 46.5363L49.8869 48.6641Z" fill="#6CACE4"/>
</svg>
