<svg width="89" height="71" viewBox="0 0 89 71" fill="none" xmlns="http://www.w3.org/2000/svg">
<path id="Vector" d="M7.86521 11.0239H80.9585M13.9563 2H74.8674M86.8243 53.5491C82.807 53.5491 78.9543 55.1535 76.1136 58.0092C73.273 60.865 71.6771 64.7382 71.6771 68.7769M2 53.5491C3.98916 53.5491 5.95884 53.943 7.79658 54.7082C9.63433 55.4735 11.3041 56.5952 12.7107 58.0092C14.1172 59.4232 15.233 61.1019 15.9942 62.9495C16.7554 64.797 17.1472 66.7771 17.1472 68.7769M86.8243 35.2758C82.807 35.2758 78.9543 33.6714 76.1136 30.8157C73.273 27.9599 71.6771 24.0867 71.6771 20.048M2 35.2758C3.98916 35.2758 5.95884 34.8819 7.79658 34.1166C9.63433 33.3514 11.3041 32.2297 12.7107 30.8157C14.1172 29.4016 15.233 27.723 15.9942 25.8754C16.7554 24.0279 17.1472 22.0478 17.1472 20.048M59.7524 44.6383C59.7524 36.2905 52.8842 29.5233 44.4118 29.5233C35.9395 29.5233 29.0713 36.2905 29.0713 44.6383C29.0713 52.9861 35.9395 59.7533 44.4118 59.7533C52.8842 59.7533 59.7524 52.9861 59.7524 44.6383ZM83.7949 20.048H5.02943C3.35632 20.048 2 21.4115 2 23.0935V65.7313C2 67.4133 3.35632 68.7768 5.02943 68.7768H83.7949C85.468 68.7768 86.8243 67.4133 86.8243 65.7313V23.0935C86.8243 21.4115 85.468 20.048 83.7949 20.048Z" stroke="#6CACE4" stroke-width="3" stroke-linecap="round" stroke-linejoin="round"/>
</svg>
