<svg width="76" height="79" viewBox="0 0 76 79" fill="none" xmlns="http://www.w3.org/2000/svg">
<g id="Group 112">
<path id="Vector" d="M2 27.9615H0.5H2ZM18.5 25.0769C18.5 25.9053 19.1716 26.5769 20 26.5769C20.8284 26.5769 21.5 25.9053 21.5 25.0769H18.5ZM38 2V0.5V2ZM54.5 25.0769C54.5 25.9053 55.1716 26.5769 56 26.5769C56.8284 26.5769 57.5 25.9053 57.5 25.0769H54.5ZM50.2083 42.9367L48.9451 43.7457L50.2083 42.9367ZM37.9146 60.9286L37.1815 62.2372C37.6389 62.4934 38.1969 62.4923 38.6532 62.2341L37.9146 60.9286ZM25.6209 42.9367L24.3 42.2259L24.3 42.2259L25.6209 42.9367ZM37.9146 44.7359L36.8722 45.8146C37.4521 46.375 38.3713 46.3766 38.9532 45.8183L37.9146 44.7359ZM5 23.5769C3.82509 23.5769 2.68704 24.0252 1.83902 24.8406L3.91834 27.0031C4.19554 26.7365 4.58361 26.5769 5 26.5769V23.5769ZM1.83902 24.8406C0.988993 25.6579 0.5 26.7793 0.5 27.9615L3.5 27.9615C3.5 27.6137 3.64315 27.2677 3.91834 27.0031L1.83902 24.8406ZM0.5 27.9615V66.9038H3.5V27.9615H0.5ZM0.5 66.9038C0.5 73.2391 6.05756 78.5 12.5 78.5V75.5C7.60243 75.5 3.5 71.4724 3.5 66.9038H0.5ZM12.5 78.5H63.5V75.5H12.5V78.5ZM63.5 78.5C69.8974 78.5 75.5 73.5071 75.5 67.1292H72.5C72.5 71.6552 68.4426 75.5 63.5 75.5V78.5ZM75.5 67.1292V27.9615H72.5V67.1292H75.5ZM75.5 27.9615C75.5 26.7793 75.011 25.6579 74.161 24.8406L72.0817 27.0031C72.3568 27.2677 72.5 27.6137 72.5 27.9615H75.5ZM74.161 24.8406C73.313 24.0251 72.1749 23.5769 71 23.5769V26.5769C71.4164 26.5769 71.8045 26.7365 72.0817 27.0031L74.161 24.8406ZM71 23.5769H5V26.5769H71V23.5769ZM21.5 25.0769V19.3077H18.5V25.0769H21.5ZM21.5 19.3077C21.5 15.1346 23.2235 11.12 26.3117 8.15056L24.2324 5.98806C20.5693 9.51024 18.5 14.3002 18.5 19.3077H21.5ZM26.3117 8.15056C29.402 5.17917 33.6054 3.5 38 3.5V0.5C32.8468 0.5 27.8935 2.4678 24.2324 5.98806L26.3117 8.15056ZM38 3.5C42.3946 3.5 46.598 5.17917 49.6883 8.15056L51.7676 5.98806C48.1065 2.4678 43.1532 0.5 38 0.5V3.5ZM49.6883 8.15056C52.7765 11.12 54.5 15.1346 54.5 19.3077H57.5C57.5 14.3002 55.4307 9.51024 51.7676 5.98806L49.6883 8.15056ZM54.5 19.3077V25.0769H57.5V19.3077H54.5ZM48.9451 43.7457C49.9024 45.2403 49.8682 46.8238 49.1035 48.5617C48.3134 50.3571 46.7837 52.1888 44.982 53.8759C43.1987 55.5457 41.2449 56.9859 39.7247 58.0142C38.9675 58.5264 38.3244 58.932 37.8729 59.2082C37.6472 59.3463 37.4698 59.4518 37.3504 59.5219C37.2906 59.557 37.2454 59.5832 37.216 59.6001C37.2012 59.6086 37.1904 59.6148 37.1837 59.6186C37.1804 59.6205 37.178 59.6219 37.1767 59.6226C37.1761 59.623 37.1757 59.6232 37.1756 59.6232C37.1755 59.6233 37.1756 59.6232 37.1756 59.6232C37.1758 59.6231 37.176 59.623 37.9146 60.9286C38.6532 62.2341 38.6536 62.2339 38.654 62.2337C38.6542 62.2335 38.6547 62.2333 38.6552 62.233C38.6561 62.2325 38.6574 62.2318 38.6588 62.2309C38.6618 62.2293 38.6658 62.227 38.6708 62.2241C38.6808 62.2184 38.695 62.2102 38.7132 62.1998C38.7496 62.1788 38.8019 62.1485 38.869 62.1091C39.0031 62.0304 39.1962 61.9155 39.4385 61.7673C39.9227 61.471 40.6049 61.0407 41.4056 60.4991C43.0012 59.4198 45.0937 57.8811 47.0325 56.0657C48.9528 54.2675 50.8208 52.1076 51.8494 49.77C52.9033 47.3749 53.1086 44.684 51.4714 42.1277L48.9451 43.7457ZM37.9146 60.9286C38.6477 59.6199 38.6479 59.62 38.6481 59.6202C38.6481 59.6201 38.6482 59.6202 38.6482 59.6202C38.6481 59.6201 38.6478 59.62 38.6472 59.6196C38.646 59.619 38.6438 59.6177 38.6406 59.6159C38.6343 59.6124 38.624 59.6065 38.6099 59.5985C38.5817 59.5824 38.5383 59.5574 38.4809 59.524C38.366 59.4571 38.195 59.3562 37.9773 59.2238C37.5417 58.9589 36.9203 58.5689 36.1871 58.074C34.7154 57.0806 32.8186 55.6817 31.0735 54.04C29.313 52.3838 27.7936 50.5606 26.9728 48.7332C26.172 46.9503 26.0708 45.2659 26.9418 43.6476L24.3 42.2259C22.8749 44.874 23.1624 47.5718 24.2362 49.9624C25.2899 52.3084 27.1309 54.4499 29.0179 56.225C30.9202 58.0146 32.9579 59.5138 34.5087 60.5606C35.2869 61.0858 35.9488 61.5014 36.4187 61.7871C36.6537 61.93 36.8411 62.0407 36.9713 62.1165C37.0364 62.1544 37.0873 62.1837 37.1227 62.2039C37.1404 62.214 37.1543 62.2219 37.1641 62.2274C37.169 62.2302 37.173 62.2324 37.1759 62.2341C37.1773 62.2349 37.1785 62.2356 37.1795 62.2361C37.1799 62.2363 37.1805 62.2366 37.1807 62.2368C37.1811 62.237 37.1815 62.2372 37.9146 60.9286ZM26.9418 43.6476C27.6173 42.3922 28.4161 41.9967 29.2082 41.9114C30.1197 41.8132 31.2416 42.11 32.4497 42.6981C33.6315 43.2733 34.7402 44.0503 35.5686 44.7015C35.9786 45.0238 36.3106 45.3078 36.5379 45.5092C36.6514 45.6098 36.7383 45.6893 36.7952 45.7422C36.8236 45.7686 36.8446 45.7883 36.8576 45.8006C36.8641 45.8068 36.8686 45.8111 36.871 45.8134C36.8723 45.8146 36.873 45.8153 36.8732 45.8155C36.8733 45.8156 36.8733 45.8156 36.8731 45.8154C36.873 45.8154 36.8728 45.8151 36.8728 45.8151C36.8725 45.8149 36.8722 45.8146 37.9146 44.7359C38.957 43.6573 38.9566 43.657 38.9562 43.6566C38.9561 43.6564 38.9556 43.656 38.9553 43.6557C38.9546 43.655 38.9538 43.6542 38.9528 43.6533C38.9509 43.6515 38.9485 43.6491 38.9455 43.6463C38.9395 43.6406 38.9315 43.6329 38.9214 43.6233C38.9011 43.6041 38.8726 43.5773 38.8363 43.5436C38.7637 43.4762 38.6597 43.381 38.5276 43.264C38.2638 43.0302 37.8863 42.7074 37.4226 42.3429C36.5036 41.6205 35.2081 40.7042 33.7626 40.0006C32.3435 39.3099 30.615 38.7425 28.8868 38.9286C27.0392 39.1277 25.409 40.1652 24.3 42.2259L26.9418 43.6476ZM37.9146 44.7359C38.9532 45.8183 38.9529 45.8185 38.9526 45.8188C38.9525 45.8188 38.9523 45.8191 38.9522 45.8192C38.952 45.8193 38.952 45.8194 38.952 45.8194C38.9521 45.8192 38.9527 45.8187 38.9538 45.8176C38.956 45.8156 38.9602 45.8116 38.9662 45.806C38.9783 45.7946 38.9979 45.7762 39.0248 45.7515C39.0786 45.702 39.161 45.6273 39.269 45.5326C39.4854 45.3429 39.8026 45.0748 40.1961 44.7701C40.9909 44.1547 42.0613 43.4183 43.2176 42.8693C44.3941 42.3108 45.5217 42.0125 46.4787 42.0994C47.3419 42.1778 48.196 42.576 48.9451 43.7457L51.4714 42.1277C50.2377 40.2013 48.5637 39.2764 46.7501 39.1117C45.0301 38.9555 43.3322 39.494 41.931 40.1593C40.5096 40.8341 39.2501 41.7085 38.3595 42.398C37.9104 42.7457 37.5459 43.0536 37.2914 43.2767C37.1639 43.3884 37.0636 43.4793 36.9934 43.5439C36.9583 43.5762 36.9307 43.602 36.911 43.6205C36.9012 43.6297 36.8933 43.6372 36.8875 43.6427C36.8846 43.6455 36.8821 43.6478 36.8802 43.6496C36.8793 43.6505 36.8784 43.6513 36.8778 43.652C36.8774 43.6523 36.877 43.6527 36.8768 43.6529C36.8764 43.6533 36.876 43.6536 37.9146 44.7359Z" fill="#6CACE4"/>
</g>
</svg>
