<svg width="73" height="73" viewBox="0 0 73 73" fill="none" xmlns="http://www.w3.org/2000/svg">
<g id="Vector">
<path d="M70.637 2.93628C70.6089 2.79993 70.5425 2.67444 70.4457 2.57451C70.3488 2.47458 70.2255 2.40435 70.0902 2.37205C61.0693 0.164486 40.2257 8.03125 28.933 19.3296C26.9188 21.3293 25.0826 23.5009 23.4452 25.8197C19.9628 25.5114 16.4804 25.7689 13.5125 27.0638C5.1384 30.7528 2.70027 40.3786 2.02104 44.5193C1.98251 44.7459 1.99704 44.9784 2.06349 45.1985C2.12994 45.4186 2.24649 45.6202 2.40398 45.7875C2.56147 45.9549 2.7556 46.0834 2.97111 46.1629C3.18662 46.2424 3.41762 46.2708 3.64595 46.2459L17.0934 44.7613C17.1031 45.7761 17.1642 46.7897 17.2767 47.7983C17.3444 48.4986 17.655 49.1532 18.1546 49.6482L23.3621 54.848C23.8571 55.3474 24.5108 55.6582 25.2103 55.7267C26.2123 55.8389 27.2194 55.9001 28.2276 55.9102L26.7521 69.3529C26.7274 69.5813 26.756 69.8124 26.8356 70.028C26.9152 70.2435 27.0436 70.4377 27.2107 70.5952C27.3778 70.7528 27.5791 70.8695 27.7988 70.9361C28.0185 71.0027 28.2507 71.0175 28.4771 70.9793C32.6064 70.3164 42.2403 67.876 45.9045 59.4944C47.1982 56.5237 47.4631 53.0551 47.1643 49.5865C49.4867 47.9476 51.662 46.1092 53.6655 44.0923C64.9937 32.8109 72.8087 12.414 70.637 2.93628ZM42.3635 30.6341C41.3291 29.5995 40.6245 28.281 40.3389 26.8455C40.0532 25.4099 40.1994 23.9219 40.7588 22.5695C41.3182 21.2171 42.2657 20.0611 43.4816 19.2478C44.6975 18.4345 46.127 18.0004 47.5894 18.0004C49.0518 18.0004 50.4814 18.4345 51.6973 19.2478C52.9131 20.0611 53.8607 21.2171 54.4201 22.5695C54.9795 23.9219 55.1257 25.4099 54.84 26.8455C54.5544 28.281 53.8498 29.5995 52.8153 30.6341C52.1294 31.3217 51.3148 31.8671 50.4181 32.2392C49.5214 32.6114 48.5602 32.8029 47.5894 32.8029C46.6187 32.8029 45.6575 32.6114 44.7608 32.2392C43.8641 31.8671 43.0495 31.3217 42.3635 30.6341Z" stroke="#6CACE4" stroke-width="3"/>
<path d="M19.5753 61.573C18.7754 62.3746 17.4923 62.687 15.9478 62.9542C12.478 63.5454 9.41403 60.5467 10.0373 57.0384C10.2753 55.7084 10.9789 53.844 11.4168 53.406C11.5125 53.3121 11.5762 53.1905 11.5989 53.0583C11.6215 52.9262 11.602 52.7902 11.543 52.6698C11.484 52.5494 11.3886 52.4506 11.2703 52.3875C11.152 52.3244 11.0168 52.3002 10.884 52.3183C8.94365 52.5558 7.13849 53.4356 5.75592 54.8178C2.32406 58.2531 2 71 2 71C2 71 14.7523 70.6759 18.1842 67.2406C19.5704 65.8589 20.4512 64.0508 20.6847 62.1074C20.7387 61.4971 19.9957 61.1336 19.5753 61.573Z" stroke="#6CACE4" stroke-width="3"/>
</g>
</svg>
