<svg width="69" height="75" viewBox="0 0 69 75" fill="none" xmlns="http://www.w3.org/2000/svg">
<g id="Group 113">
<path id="Star 1" d="M36.7503 14.5696C36.547 13.9556 35.9731 13.541 35.3263 13.541C34.6796 13.541 34.1056 13.9556 33.9024 14.5696L31.6775 21.2895H24.459C23.8067 21.2895 23.2292 21.711 23.0303 22.3323C22.8315 22.9536 23.057 23.6321 23.5882 24.0108L29.4036 28.1572L27.186 34.8553C26.982 35.4713 27.1973 36.1486 27.7195 36.5339C28.2417 36.9191 28.9524 36.9248 29.4808 36.5481L35.3263 32.3802L41.1719 36.5481C41.7003 36.9248 42.411 36.9191 42.9332 36.5339C43.4554 36.1486 43.6707 35.4713 43.4667 34.8553L41.2491 28.1572L47.0645 24.0108C47.5956 23.6321 47.8211 22.9536 47.6223 22.3323C47.4235 21.711 46.846 21.2895 46.1937 21.2895H38.9752L36.7503 14.5696Z" stroke="#6CACE4" stroke-width="3" stroke-linejoin="round"/>
<path id="Vector" d="M29.9945 57.1487L31.4939 57.1048L29.9945 57.1487ZM20.1771 67.8103L20.5061 69.2738L20.1771 67.8103ZM16.4898 73H14.9898C14.9898 73.8284 15.6614 74.5 16.4898 74.5V73ZM52.7143 73V74.5C53.5428 74.5 54.2143 73.8284 54.2143 73H52.7143ZM49.5673 67.9089L49.962 66.4617L49.5673 67.9089ZM40.0346 57.1585L38.5396 57.0363L40.0346 57.1585ZM57.7644 4.89796H56.2644V4.90029L57.7644 4.89796ZM54.9121 2V0.499999L54.9104 0.500001L54.9121 2ZM15.0183 2.04709L15.0183 3.54709L15.02 3.54709L15.0183 2.04709ZM12.166 4.936L10.666 4.93138V4.936H12.166ZM57.7858 14.2653C56.9573 14.2653 56.2858 14.9369 56.2858 15.7653C56.2858 16.5937 56.9573 17.2653 57.7858 17.2653V14.2653ZM67.2041 15.7653H68.7041C68.7041 14.9369 68.0326 14.2653 67.2041 14.2653V15.7653ZM11.4184 17.2653C12.2468 17.2653 12.9184 16.5937 12.9184 15.7653C12.9184 14.9369 12.2468 14.2653 11.4184 14.2653V17.2653ZM2 15.7653V14.2653C1.17157 14.2653 0.5 14.9369 0.5 15.7653H2ZM11.4184 35.3776C12.2468 35.3776 12.9184 34.706 12.9184 33.8776C12.9184 33.0491 12.2468 32.3776 11.4184 32.3776V35.3776ZM29.865 53.4972C28.3666 53.5656 28.3666 53.5656 28.3666 53.5656C28.3666 53.5656 28.3666 53.5656 28.3666 53.5656C28.3666 53.5656 28.3666 53.5657 28.3666 53.5657C28.3666 53.5658 28.3666 53.566 28.3666 53.5663C28.3666 53.5669 28.3667 53.5678 28.3667 53.569C28.3668 53.5715 28.367 53.5753 28.3673 53.5805C28.3677 53.5907 28.3684 53.6063 28.3693 53.627C28.3711 53.6684 28.3738 53.7304 28.3773 53.8121C28.3842 53.9755 28.3941 54.2175 28.406 54.5303C28.43 55.1557 28.4622 56.0641 28.4951 57.1925L31.4939 57.1048C31.4606 55.9665 31.4281 55.0491 31.4038 54.4155C31.3917 54.0987 31.3816 53.8529 31.3746 53.6858C31.3711 53.6023 31.3683 53.5384 31.3664 53.4952C31.3655 53.4737 31.3647 53.4572 31.3642 53.4461C31.364 53.4406 31.3638 53.4363 31.3637 53.4334C31.3636 53.432 31.3636 53.4308 31.3635 53.4301C31.3635 53.4297 31.3635 53.4294 31.3635 53.4291C31.3635 53.429 31.3635 53.4289 31.3635 53.4289C31.3635 53.4288 31.3635 53.4288 31.3635 53.4288C31.3635 53.4288 31.3635 53.4287 29.865 53.4972ZM19.848 66.3469C17.8305 66.8005 16.3937 67.572 15.6303 68.9883C14.9518 70.2471 14.9898 71.7729 14.9898 73H17.9898C17.9898 71.5177 18.0278 70.8632 18.2711 70.4117C18.4295 70.1178 18.8363 69.6492 20.5061 69.2738L19.848 66.3469ZM16.4898 74.5H52.7143V71.5H16.4898V74.5ZM54.2143 73C54.2143 71.8106 54.2446 70.3695 53.6793 69.1627C53.0291 67.7746 51.7693 66.9545 49.962 66.4617L49.1727 69.356C50.5123 69.7213 50.8261 70.1438 50.9626 70.4353C51.1841 70.9081 51.2143 71.5835 51.2143 73H54.2143ZM41.5296 57.2807C41.6214 56.1582 41.711 55.2555 41.7774 54.6354C41.8106 54.3254 41.838 54.0862 41.857 53.9255C41.8665 53.8452 41.8738 53.7846 41.8788 53.7446C41.8812 53.7246 41.8831 53.7098 41.8843 53.7002C41.8849 53.6954 41.8853 53.692 41.8856 53.6899C41.8857 53.6888 41.8858 53.6881 41.8858 53.6877C41.8859 53.6875 41.8859 53.6874 41.8859 53.6874C41.8859 53.6874 41.8859 53.6874 41.8859 53.6874C41.8859 53.6874 41.8859 53.6875 41.8859 53.6875C41.8859 53.6875 41.8859 53.6876 40.398 53.4972C38.9101 53.3069 38.9101 53.307 38.9101 53.307C38.9101 53.3071 38.9101 53.3071 38.9101 53.3072C38.9101 53.3073 38.91 53.3075 38.91 53.3076C38.91 53.3079 38.9099 53.3083 38.9099 53.3088C38.9098 53.3098 38.9096 53.3111 38.9094 53.3127C38.909 53.316 38.9084 53.3206 38.9076 53.3266C38.9061 53.3385 38.904 53.3557 38.9012 53.3781C38.8957 53.4229 38.8877 53.4885 38.8777 53.5739C38.8575 53.7447 38.8289 53.9946 38.7945 54.3159C38.7257 54.9582 38.6336 55.8861 38.5396 57.0363L41.5296 57.2807ZM49.962 66.4617C44.8879 65.0781 41.1693 61.6893 41.5296 57.2807L38.5396 57.0363C38.0001 63.6366 43.5902 67.8338 49.1727 69.356L49.962 66.4617ZM28.4951 57.1925C28.6272 61.7101 24.8573 65.2206 19.848 66.3469L20.5061 69.2738C26.2736 67.9771 31.6845 63.6282 31.4939 57.1048L28.4951 57.1925ZM59.2858 33.8776C59.2858 24.7047 59.2715 9.49143 59.2644 4.89563L56.2644 4.90029C56.2715 9.49466 56.2858 24.7064 56.2858 33.8776H59.2858ZM59.2644 4.89796C59.2644 3.73918 58.8115 2.62314 57.998 1.7966L55.8599 3.90099C56.1162 4.16139 56.2644 4.51957 56.2644 4.89796H59.2644ZM57.998 1.7966C57.1837 0.969249 56.0742 0.5 54.9121 0.5V3.5C55.263 3.5 55.6044 3.64139 55.8599 3.90099L57.998 1.7966ZM54.9104 0.500001L15.0165 0.547093L15.02 3.54709L54.9139 3.5L54.9104 0.500001ZM15.0183 0.547092C13.8586 0.547086 12.7511 1.01442 11.9372 1.83882L14.072 3.94654C14.3274 3.68791 14.6681 3.54709 15.0183 3.54709L15.0183 0.547092ZM11.9372 1.83882C11.124 2.66241 10.6696 3.77496 10.666 4.93138L13.666 4.94061C13.6672 4.563 13.8159 4.20598 14.072 3.94654L11.9372 1.83882ZM10.666 4.936C10.666 7.70441 10.6602 13.5523 10.6545 19.4026C10.6487 25.2519 10.6429 31.1036 10.6429 33.8776H13.6429C13.6429 31.1055 13.6487 25.2558 13.6545 19.4056C13.6602 13.5562 13.666 7.70632 13.666 4.936H10.666ZM10.6429 33.8776C10.6429 40.3573 14.744 45.8182 19.6291 49.5754C24.5072 53.3271 30.5249 55.6633 34.9607 55.6633V52.6633C31.3747 52.6633 25.9835 50.6779 21.4581 47.1974C16.9398 43.7224 13.6429 39.0404 13.6429 33.8776H10.6429ZM34.9607 55.6633C39.3965 55.6633 45.416 53.3272 50.2957 49.5756C55.1825 45.8185 59.2858 40.3576 59.2858 33.8776H56.2858C56.2858 39.0401 52.9874 43.722 48.4672 47.1972C43.94 50.6778 38.5469 52.6633 34.9607 52.6633V55.6633ZM57.7858 17.2653H67.2041V14.2653H57.7858V17.2653ZM65.7041 15.7653V18.0293H68.7041V15.7653H65.7041ZM65.7041 18.0293C65.7041 21.7091 64.7688 25.4138 63.2367 28.151C61.6749 30.9412 59.7191 32.3776 57.7858 32.3776V35.3776C61.321 35.3776 64.0743 32.7967 65.8546 29.6163C67.6645 26.3827 68.7041 22.1633 68.7041 18.0293H65.7041ZM11.4184 14.2653H2V17.2653H11.4184V14.2653ZM0.5 15.7653V18.0293H3.5V15.7653H0.5ZM0.5 18.0293C0.5 22.1633 1.53963 26.3827 3.34958 29.6163C5.1298 32.7967 7.88315 35.3776 11.4184 35.3776V32.3776C9.48506 32.3776 7.52922 30.9412 5.96739 28.151C4.43529 25.4138 3.5 21.7091 3.5 18.0293H0.5Z" fill="#6CACE4"/>
</g>
</svg>
