<?xml version="1.0" encoding="utf-8"?>
<!-- Generator: Adobe Illustrator 18.1.1, SVG Export Plug-In . SVG Version: 6.00 Build 0)  -->
<svg version="1.1" id="Слой_1" xmlns="http://www.w3.org/2000/svg" xmlns:xlink="http://www.w3.org/1999/xlink" x="0px" y="0px"
	 viewBox="-409.5 293.8 11 9" enable-background="new -409.5 293.8 11 9" xml:space="preserve">
<path d="M-409.5,302.3c0-0.3,0.2-0.5,0.5-0.5h10c0.3,0,0.5,0.2,0.5,0.5s-0.2,0.5-0.5,0.5h-10C-409.3,302.8-409.5,302.6-409.5,302.3z
	 M-409.5,298.3c0-0.3,0.2-0.5,0.5-0.5h10c0.3,0,0.5,0.2,0.5,0.5s-0.2,0.5-0.5,0.5h-10C-409.3,298.8-409.5,298.6-409.5,298.3z
	 M-409.5,294.3c0-0.3,0.2-0.5,0.5-0.5h10c0.3,0,0.5,0.2,0.5,0.5s-0.2,0.5-0.5,0.5h-10C-409.3,294.8-409.5,294.6-409.5,294.3z"/>
</svg>
