<?xml version="1.0" encoding="UTF-8"?>
<svg id="_Слой_1" data-name="Слой 1" xmlns="http://www.w3.org/2000/svg" xmlns:xlink="http://www.w3.org/1999/xlink" viewBox="0 0 183.32 83.5">
  <defs>
    <style>
      .cls-1 {
        fill: url(#linear-gradient-2);
      }

      .cls-2 {
        fill: url(#linear-gradient-6);
      }

      .cls-3 {
        fill: url(#radial-gradient);
      }

      .cls-4 {
        fill: #11559b;
      }

      .cls-5 {
        fill: #3c3c3b;
      }

      .cls-6 {
        fill: url(#linear-gradient-5);
      }

      .cls-7 {
        fill: url(#linear-gradient-3);
      }

      .cls-8 {
        fill: url(#linear-gradient);
      }

      .cls-9 {
        fill: url(#linear-gradient-4);
      }
    </style>
    <radialGradient id="radial-gradient" cx="-5293.52" cy="3797.25" fx="-5293.52" fy="3797.25" r="87.86" gradientTransform="translate(782.08 -497.35) rotate(-.06) scale(.14)" gradientUnits="userSpaceOnUse">
      <stop offset="0" stop-color="#4a96d2"/>
      <stop offset="1" stop-color="#1f2466"/>
    </radialGradient>
    <linearGradient id="linear-gradient" x1="12.14" y1="35.85" x2="32.9" y2="3.89" gradientUnits="userSpaceOnUse">
      <stop offset="0" stop-color="#4a96d2"/>
      <stop offset="1" stop-color="#1f2466"/>
    </linearGradient>
    <linearGradient id="linear-gradient-2" x1="20.43" y1="-.99" x2="72" y2="19.85" xlink:href="#linear-gradient"/>
    <linearGradient id="linear-gradient-3" x1="-6741.49" y1="-8281.31" x2="-6720.74" y2="-8313.28" gradientTransform="translate(3852.53 -9908.62) rotate(-120)" xlink:href="#linear-gradient"/>
    <linearGradient id="linear-gradient-4" x1="-6733.21" y1="-8318.15" x2="-6681.64" y2="-8297.31" gradientTransform="translate(3852.53 -9908.62) rotate(-120)" xlink:href="#linear-gradient"/>
    <linearGradient id="linear-gradient-5" x1="3838.2" y1="-9971.55" x2="3858.96" y2="-10003.52" gradientTransform="translate(-6654.86 -8290.7) rotate(120)" xlink:href="#linear-gradient"/>
    <linearGradient id="linear-gradient-6" x1="3846.49" y1="-10008.39" x2="3898.06" y2="-9987.55" gradientTransform="translate(-6654.86 -8290.7) rotate(120)" xlink:href="#linear-gradient"/>
  </defs>
  <g>
    <path class="cls-3" d="m48.27,47.63c-3.25,3.6-8.79,3.88-12.39.63-3.6-3.24-3.89-8.79-.65-12.39,3.25-3.6,8.79-3.88,12.39-.63,3.6,3.24,3.88,8.79.64,12.39Z"/>
    <path class="cls-8" d="m16.64,8.4c-5.74,4.33-10.32,10.1-13.22,16.78,3.47.86,13.86,4.24,18.62,17.1,1.43-.47,4.52-2.27,6.67-9.22,2.87-9.31,8.33-18.26,15.4-21.27-7.05-6.98-16.34-8.62-27.47-3.4Z"/>
    <path class="cls-1" d="m73.9,15.13s0,0,0,0C66.25,5.89,54.69,0,41.75,0c-9.43,0-18.12,3.13-25.11,8.4,15.45-7.25,27.36-1.27,34.65,13.85,11.62,2.08,19.5-3.7,22.61-7.12Z"/>
    <path class="cls-7" d="m25.43,80.17c6.62,2.81,13.91,3.89,21.14,3.05-.99-3.43-3.26-14.12,5.5-24.68-1.12-1.01-4.23-2.78-11.32-1.16-9.5,2.16-19.98,1.92-26.12-2.7-2.52,9.6.71,18.47,10.79,25.49Z"/>
    <path class="cls-9" d="m2.62,27.21s0,0,0,0c-4.17,11.25-3.49,24.21,2.98,35.41,4.71,8.16,11.77,14.13,19.83,17.55-14-9.76-14.78-23.06-5.34-36.94-4-11.1-12.95-15.04-17.47-16.03Z"/>
    <path class="cls-6" d="m83.19,36.67c-.88-7.13-3.59-13.99-7.93-19.84-2.48,2.58-10.6,9.88-24.12,7.58-.31,1.47-.3,5.05,4.65,10.38,6.62,7.14,11.65,16.34,10.72,23.97,9.57-2.62,15.64-9.85,16.68-22.1Z"/>
    <path class="cls-2" d="m48.73,82.91s0,0,0,0c11.83-2.01,22.71-9.08,29.17-20.29,4.71-8.16,6.36-17.26,5.29-25.95-1.45,17.01-12.58,24.33-29.32,23.09-7.61,9.02-6.55,18.74-5.14,23.14Z"/>
  </g>
  <rect class="cls-5" x="96.25" y="8.77" width=".84" height="65.97"/>
  <g>
    <path class="cls-5" d="m119.79,37.97h-1.63v-10.2l-6.15,10.2h-1.85v-12.66h1.63v10.2l6.15-10.2h1.84v12.66Z"/>
    <path class="cls-5" d="m133.39,37.63c-.35.17-.76.3-1.23.39-.47.09-.98.14-1.54.14-.99,0-1.87-.15-2.65-.44-.78-.3-1.44-.72-1.98-1.28s-.96-1.22-1.25-2-.43-1.66-.43-2.63c0-1.07.15-2.03.43-2.86.29-.83.71-1.53,1.25-2.1s1.2-1,1.96-1.28c.77-.29,1.62-.43,2.56-.43.72,0,1.31.05,1.76.15.45.1.83.21,1.13.33l-.31,1.43c-.4-.15-.8-.25-1.21-.31s-.81-.09-1.21-.09c-1.51,0-2.66.42-3.45,1.27s-1.18,2.09-1.18,3.73c0,.78.11,1.49.33,2.11.22.62.54,1.15.95,1.57.41.43.91.75,1.5.98.59.22,1.26.33,2.01.33.4,0,.8-.04,1.2-.11.4-.07.76-.19,1.08-.34l.27,1.45Z"/>
    <path class="cls-5" d="m142.04,37.97h-1.63v-11.14h-3.75v-1.52h9.12v1.52h-3.75v11.14Z"/>
    <path class="cls-5" d="m154.41,38.15c-.88,0-1.67-.15-2.38-.45-.71-.3-1.31-.73-1.81-1.29-.5-.56-.88-1.25-1.15-2.05-.27-.81-.4-1.71-.4-2.71s.14-1.92.42-2.72c.28-.8.67-1.48,1.17-2.04.5-.56,1.1-.99,1.8-1.29.7-.3,1.46-.45,2.3-.45.94,0,1.77.16,2.49.48.72.32,1.32.77,1.81,1.34.49.57.86,1.26,1.11,2.06.25.8.38,1.68.38,2.63,0,1.07-.14,2.02-.43,2.83-.29.81-.69,1.49-1.19,2.04-.51.54-1.11.95-1.81,1.23s-1.46.42-2.3.42Zm.16-1.52c1.19,0,2.13-.42,2.81-1.26.68-.84,1.02-2.08,1.02-3.74,0-.87-.09-1.62-.28-2.24-.19-.63-.46-1.15-.8-1.56s-.78-.71-1.28-.9c-.5-.19-1.06-.29-1.69-.29-.55,0-1.07.1-1.56.31-.48.21-.9.51-1.25.92s-.63.93-.83,1.56c-.21.63-.31,1.36-.31,2.21s.1,1.56.3,2.19c.2.63.48,1.15.84,1.56.36.42.8.73,1.31.93s1.08.31,1.71.31Z"/>
    <path class="cls-5" d="m170.66,35.87c-.37-.59-.68-1.1-.93-1.53s-.46-.78-.63-1.05c-.17-.27-.33-.48-.48-.63-.15-.15-.31-.26-.49-.32-.18-.06-.39-.09-.64-.09h-1.19v5.72h-1.63v-12.66h1.63v5.75h1.07l4.47-5.75h2.08l-4.87,5.83c.35.06.66.23.92.52.26.28.57.7.9,1.25s.76,1.24,1.26,2.08c.5.84,1.16,1.84,1.98,2.99h-2.06c-.55-.81-1.02-1.51-1.38-2.1Z"/>
  </g>
  <g>
    <path class="cls-4" d="m111.14,57.42h-1.3v-10.14h2.98c.58,0,1.1.06,1.56.18.46.12.85.31,1.18.57s.58.59.75.99c.17.4.26.87.26,1.42,0,1.05-.34,1.86-1.02,2.41s-1.63.83-2.85.83h-1.56v3.74Zm0-4.95h1.56c.81,0,1.43-.16,1.85-.49.42-.33.63-.83.63-1.51s-.21-1.2-.63-1.51c-.42-.31-1.04-.46-1.85-.46h-1.56v3.97Z"/>
    <path class="cls-4" d="m123.92,57.56c-.71,0-1.34-.12-1.9-.36-.57-.24-1.05-.59-1.45-1.04-.4-.45-.71-1-.92-1.64-.21-.65-.32-1.37-.32-2.17s.11-1.54.33-2.18c.22-.64.53-1.19.93-1.64.4-.45.88-.79,1.44-1.04.56-.24,1.17-.36,1.84-.36.75,0,1.42.13,1.99.38.58.26,1.06.61,1.45,1.07.39.46.69,1.01.89,1.65s.3,1.34.3,2.11c0,.86-.12,1.62-.35,2.27-.23.65-.55,1.19-.96,1.63-.41.43-.89.76-1.45.99-.56.22-1.17.33-1.84.33Zm.13-1.22c.96,0,1.71-.33,2.25-1.01.55-.67.82-1.67.82-2.99,0-.7-.07-1.29-.22-1.8-.15-.5-.37-.92-.65-1.25-.28-.33-.62-.57-1.02-.72-.4-.16-.85-.23-1.35-.23-.44,0-.86.08-1.25.25-.39.17-.72.41-1,.74-.28.33-.5.74-.67,1.25-.16.5-.25,1.09-.25,1.77s.08,1.25.24,1.75.38.92.67,1.25c.29.33.64.58,1.05.75s.87.25,1.37.25Z"/>
    <path class="cls-4" d="m138.82,57.14c-.28.14-.61.24-.98.31-.38.07-.79.11-1.23.11-.79,0-1.5-.12-2.12-.35s-1.15-.58-1.59-1.02-.77-.98-1-1.6-.35-1.33-.35-2.11c0-.86.12-1.62.35-2.29s.57-1.23,1-1.68c.43-.45.96-.8,1.57-1.03s1.3-.35,2.05-.35c.58,0,1.05.04,1.41.12s.66.17.91.27l-.25,1.14c-.32-.12-.64-.2-.97-.25-.33-.05-.65-.07-.97-.07-1.21,0-2.13.34-2.76,1.01-.63.68-.95,1.67-.95,2.98,0,.63.09,1.19.27,1.69.18.5.43.92.76,1.26s.73.6,1.2.78c.47.18,1.01.27,1.61.27.32,0,.64-.03.96-.09.32-.06.61-.15.86-.28l.22,1.16Z"/>
    <path class="cls-4" d="m147.93,54.71h-4.33l-.99,2.71h-1.32l3.87-10.14h1.3l3.79,10.14h-1.36l-.97-2.71Zm-3.91-1.19h3.49l-1.7-4.77h-.06l-1.74,4.77Z"/>
    <path class="cls-4" d="m155.58,57.42h-1.3v-8.92h-3v-1.22h7.3v1.22h-3v8.92Z"/>
    <path class="cls-4" d="m165.35,57.56c-.71,0-1.34-.12-1.9-.36-.57-.24-1.05-.59-1.45-1.04-.4-.45-.71-1-.92-1.64-.21-.65-.32-1.37-.32-2.17s.11-1.54.33-2.18c.22-.64.53-1.19.93-1.64.4-.45.88-.79,1.44-1.04.56-.24,1.17-.36,1.84-.36.75,0,1.42.13,1.99.38.58.26,1.06.61,1.45,1.07.39.46.69,1.01.89,1.65s.3,1.34.3,2.11c0,.86-.12,1.62-.35,2.27-.23.65-.55,1.19-.96,1.63-.41.43-.89.76-1.45.99-.56.22-1.17.33-1.84.33Zm.13-1.22c.96,0,1.71-.33,2.25-1.01.55-.67.82-1.67.82-2.99,0-.7-.07-1.29-.22-1.8-.15-.5-.37-.92-.65-1.25-.28-.33-.62-.57-1.02-.72-.4-.16-.85-.23-1.35-.23-.44,0-.86.08-1.25.25-.39.17-.72.41-1,.74-.28.33-.5.74-.67,1.25-.16.5-.25,1.09-.25,1.77s.08,1.25.24,1.75.38.92.67,1.25c.29.33.64.58,1.05.75s.87.25,1.37.25Z"/>
    <path class="cls-4" d="m183.32,57.42h-1.3l-.62-7.92-2.56,7.92h-1.36l-2.55-7.89-.64,7.89h-1.3l.87-10.14h1.59l2.74,8.72,2.68-8.72h1.59l.87,10.14Z"/>
  </g>
</svg>