<svg width="267" height="403" viewBox="0 0 267 403" fill="none" xmlns="http://www.w3.org/2000/svg">
<path d="M90.6687 240.357C90.6687 232.215 91.7812 224.814 94.0062 218.153C96.6021 211.122 100.125 204.646 104.575 198.725C109.025 192.803 114.217 187.068 120.15 181.517C126.454 175.966 133.129 170.415 140.175 164.864C152.412 154.502 161.869 145.25 168.544 137.109C175.59 128.597 179.113 119.531 179.113 109.909C179.113 97.697 175.404 88.2603 167.988 81.5992C160.571 74.568 149.075 71.0523 133.5 71.0523C118.667 71.0523 107.356 74.938 99.5687 82.7094C91.7812 90.4807 87.8875 101.398 87.8875 115.46H0C0 99.5473 3.15208 84.7447 9.45625 71.0523C15.7604 56.9899 24.6604 44.7778 36.1562 34.416C47.6521 23.6841 61.5583 15.3577 77.875 9.43665C94.5625 3.14555 113.104 0 133.5 0C155.008 0 174.106 2.77549 190.794 8.32647C207.481 13.8774 221.387 21.4637 232.512 31.0854C244.008 40.7071 252.537 51.994 258.1 64.9463C264.033 77.8985 267 91.961 267 107.134C267 118.606 265.517 128.967 262.55 138.219C259.954 147.471 256.246 155.982 251.425 163.753C246.975 171.155 241.783 178.001 235.85 184.292C229.917 190.583 223.983 196.319 218.05 201.5C208.408 210.011 200.806 217.043 195.244 222.594C189.681 228.145 185.417 232.77 182.45 236.471C179.854 240.172 178.185 243.502 177.444 246.463C176.702 249.053 176.331 251.644 176.331 254.234V262.561H90.6687V240.357ZM133.5 403C118.667 403 106.058 398.004 95.675 388.012C85.6625 377.651 80.6562 365.068 80.6562 350.266C80.6562 335.463 85.6625 323.066 95.675 313.074C106.058 302.713 118.667 297.532 133.5 297.532C148.333 297.532 160.756 302.713 170.769 313.074C181.152 323.066 186.344 335.463 186.344 350.266C186.344 365.068 181.152 377.651 170.769 388.012C160.756 398.004 148.333 403 133.5 403Z" fill="#E9F5FF"/>
</svg>
