<svg width="53" height="12" viewBox="0 0 53 12" fill="none" xmlns="http://www.w3.org/2000/svg">
<path d="M1 5.25C0.585786 5.25 0.25 5.58579 0.25 6C0.25 6.41421 0.585786 6.75 1 6.75V5.25ZM52.5303 6.53033C52.8232 6.23744 52.8232 5.76256 52.5303 5.46967L47.7574 0.696699C47.4645 0.403806 46.9896 0.403806 46.6967 0.696699C46.4038 0.989593 46.4038 1.46447 46.6967 1.75736L50.9393 6L46.6967 10.2426C46.4038 10.5355 46.4038 11.0104 46.6967 11.3033C46.9896 11.5962 47.4645 11.5962 47.7574 11.3033L52.5303 6.53033ZM1 6.75H52V5.25H1V6.75Z" fill="#6CACE4"/>
</svg>
